<?xml version="1.0" encoding="UTF-8" standalone="no"?>
<!-- Created with Inkscape (http://www.inkscape.org/) -->

<svg
   xmlns:dc="http://purl.org/dc/elements/1.1/"
   xmlns:cc="http://creativecommons.org/ns#"
   xmlns:rdf="http://www.w3.org/1999/02/22-rdf-syntax-ns#"
   xmlns:svg="http://www.w3.org/2000/svg"
   xmlns="http://www.w3.org/2000/svg"
   xmlns:sodipodi="http://sodipodi.sourceforge.net/DTD/sodipodi-0.dtd"
   xmlns:inkscape="http://www.inkscape.org/namespaces/inkscape"
   id="svg4155"
   version="1.1"
   inkscape:version="0.91 r13725"
   xml:space="preserve"
   width="420mm"
   height="297mm"
   viewBox="0 0 420 297"
   sodipodi:docname="View title.svg">
   sodipodi:docname=&quot;A3 page template.svg&quot;&gt;<metadata
   id="metadata4161"><rdf:RDF><cc:Work
       rdf:about=""><dc:format>image/svg+xml</dc:format><dc:type
         rdf:resource="http://purl.org/dc/dcmitype/StillImage" /><dc:title></dc:title></cc:Work></rdf:RDF></metadata><defs
   id="defs4159"><clipPath
     clipPathUnits="userSpaceOnUse"
     id="clipPath4171"><path
       d="m 0,0 21562,0 0,28762 L 0,28762 0,0"
       id="path4173"
       inkscape:connector-curvature="0" /></clipPath><clipPath
     clipPathUnits="userSpaceOnUse"
     id="clipPath4183"><path
       d="m 0,0 21562,0 0,28762 L 0,28762 0,0"
       id="path4185"
       inkscape:connector-curvature="0" /></clipPath><clipPath
     clipPathUnits="userSpaceOnUse"
     id="clipPath4191"><path
       d="m 0,0 21562,0 0,28762 L 0,28762 0,0"
       id="path4193"
       inkscape:connector-curvature="0" /></clipPath><clipPath
     clipPathUnits="userSpaceOnUse"
     id="clipPath4203"><path
       d="m 0,0 21562,0 0,28762 L 0,28762 0,0"
       id="path4205"
       inkscape:connector-curvature="0" /></clipPath><clipPath
     clipPathUnits="userSpaceOnUse"
     id="clipPath4211"><path
       d="m 0,0 21562,0 0,28762 L 0,28762 0,0"
       id="path4213"
       inkscape:connector-curvature="0" /></clipPath><clipPath
     clipPathUnits="userSpaceOnUse"
     id="clipPath5205"><path
       d="m 0,0 21562,0 0,28762 L 0,28762 0,0"
       id="path5207"
       inkscape:connector-curvature="0" /></clipPath><clipPath
     clipPathUnits="userSpaceOnUse"
     id="clipPath5213"><path
       d="m 0,0 21562,0 0,28762 L 0,28762 0,0"
       id="path5215"
       inkscape:connector-curvature="0" /></clipPath></defs><sodipodi:namedview
   pagecolor="#ffffff"
   bordercolor="#666666"
   borderopacity="1"
   objecttolerance="10"
   gridtolerance="10"
   guidetolerance="10"
   inkscape:pageopacity="0"
   inkscape:pageshadow="2"
   inkscape:window-width="1920"
   inkscape:window-height="1053"
   id="namedview4157"
   showgrid="false"
   units="mm"
   inkscape:snap-global="true"
   inkscape:snap-bbox="true"
   showguides="false"
   inkscape:guide-bbox="true"
   inkscape:zoom="1"
   inkscape:cx="530.38089"
   inkscape:cy="756.3691"
   inkscape:window-x="0"
   inkscape:window-y="0"
   inkscape:window-maximized="1"
   inkscape:current-layer="g4163"><inkscape:grid
     type="xygrid"
     id="grid5347" /><sodipodi:guide
     position="0,0"
     orientation="1,0"
     id="guide5349" /><sodipodi:guide
     position="0,0"
     orientation="0,1"
     id="guide5351" /><sodipodi:guide
     position="3780,2700"
     orientation="0,1"
     id="guide5353" /><sodipodi:guide
     position="3780,2699.7558"
     orientation="1,0"
     id="guide5355" /><sodipodi:guide
     position="3425.2252,596.79812"
     orientation="1,0"
     id="guide5382" /><sodipodi:guide
     position="3180,1668"
     orientation="1,0"
     id="guide5384" /><sodipodi:guide
     position="1144,591.00001"
     orientation="1,0"
     id="guide5677" /></sodipodi:namedview><g
   id="g4163"
   inkscape:groupmode="layer"
   inkscape:label="PERMIT-A-100 - FLOOR PLANS"
   transform="matrix(0,-1.25,-1.25,0,4320,1052.3622)"><g
     id="g4179"
     transform="matrix(0.03363468,0,0,0.03373516,595.05617,3009.2861)"><g
       clip-path="url(#clipPath4183)"
       id="g4181" /></g><g
     id="g4199"
     transform="matrix(0.03363468,0,0,0.03373516,595.05617,3009.2861)"><g
       clip-path="url(#clipPath4203)"
       id="g4201" /></g><g
     style="stroke-width:6.66666651;stroke-miterlimit:4;stroke-dasharray:none"
     transform="matrix(0.03363468,0,0,0.03373516,765.81944,3213.2152)"
     id="g4867" /><g
     id="g5201"
     transform="matrix(0.03363468,0,0,0.03373516,595.05617,3009.2861)"><g
       clip-path="url(#clipPath5205)"
       id="g5203" /></g><path
     inkscape:connector-curvature="0"
     id="path56442"
     style="fill:none;stroke:#000000;stroke-width:0.03999999;stroke-linecap:round;stroke-linejoin:round;stroke-miterlimit:10;stroke-dasharray:none;stroke-opacity:1"
     d="m 832.43099,3441.6224 0.0339,0 0.0339,0 0.0339,0 0.0339,0 0.0339,0 0.0339,0 0.0339,0 0.0339,0 0.0339,0 0.0339,0 0.0339,0 0.0339,0 0.0339,0.034 0.0339,0 0.0339,0 0.0339,0 0.0339,0 0.0339,0.034 0.0339,0 0.0339,0 0.0339,0 0,0.034 0.0339,0 0.0339,0 0.0339,0 0.0339,0.034 0.0339,0 0.0339,0 0,0.034 0.0339,0 0.0339,0 0.0339,0 0,0.034 0.0339,0 0.0339,0 0,0.034 0.0339,0 0.0339,0 0,0.034 0.0339,0 0.0339,0 0,0.034 0.0339,0 0.0339,0 0,0.034 0.0339,0 0.0339,0.034 0.0339,0 0,0.034 0.0339,0 0.0339,0 0,0.034 0.0339,0 0,0.034 0.0339,0 0,0.034 0.0339,0 0.0339,0 0,0.034 0.0339,0 0,0.034 0.0339,0 0,0.034 0.0339,0 0,0.034 0.0339,0 0,0.034 0.0339,0 0.0339,0.034 0.0339,0.034 0,0.034 0.0339,0 0,0.034 0.0339,0 0,0.034 0.0339,0 0,0.034 0.0339,0 0,0.034 0.0339,0 0,0.034 0.0339,0 0,0.034 0.0339,0.034 0,0.034 0.0339,0 0,0.034 0.0339,0 0,0.034 0,0.034 0.0339,0 0,0.034 0.0339,0.034 0,0.034 0.0339,0 0,0.034 0,0.034 0.0339,0 0,0.034 0,0.034 0.0339,0 0,0.034 0,0.034 0.0339,0 0,0.034 0,0.034 0.0339,0 0,0.034 0,0.034 0,0.034 0.0339,0 0,0.034 0,0.034 0.0339,0.034 0,0.034 0,0.034 0,0.034 0.0339,0 0,0.034 0,0.034 0,0.034 0,0.034 0.0339,0 0,0.034 0,0.034 0,0.034 0,0.034 0,0.034 0.0339,0 0,0.034 0,0.034 0,0.034 0,0.034 0,0.034 0,0.034 0,0.034 0,0.034 0,0.034 0,0.034 0,0.034 0,0.034 0,0.034 0,0.034 0,0.034 0,0.034 0,0.034 0,0.034 0,0.034 0,0.034 0,0.034 0,0.034 0,0.034 -0.0339,0 0,0.034 0,0.034 0,0.034 0,0.034 0,0.034 -0.0339,0.034 0,0.034 0,0.034 0,0.034 -0.0339,0 0,0.034 0,0.034 0,0.034 -0.0339,0.034 0,0.034 0,0.034 -0.0339,0 0,0.034 0,0.034 0,0.034 -0.0339,0 0,0.034 0,0.034 -0.0339,0 0,0.034 0,0.034 -0.0339,0 0,0.034 0,0.034 -0.0339,0 0,0.034 0,0.034 -0.0339,0 0,0.034 -0.0339,0.034 0,0.034 -0.0339,0 0,0.034 0,0.034 -0.0339,0 0,0.034 -0.0339,0 0,0.034 -0.0339,0.034 0,0.034 -0.0339,0 0,0.034 -0.0339,0 0,0.034 -0.0339,0 0,0.034 -0.0339,0 0,0.034 -0.0339,0 0,0.034 -0.0339,0.034 -0.0339,0.034 -0.0339,0.034 -0.0339,0 0,0.034 -0.0339,0 0,0.034 -0.0339,0 0,0.034 -0.0339,0 0,0.034 -0.0339,0 0,0.034 -0.0339,0 -0.0339,0.034 -0.0339,0 0,0.034 -0.0339,0 0,0.034 -0.0339,0 -0.0339,0 0,0.034 -0.0339,0 -0.0339,0.034 -0.0339,0 0,0.034 -0.0339,0 -0.0339,0 0,0.034 -0.0339,0 -0.0339,0 0,0.034 -0.0339,0 -0.0339,0 0,0.034 -0.0339,0 -0.0339,0 0,0.034 -0.0339,0 -0.0339,0 -0.0339,0.034 -0.0339,0 -0.0339,0 -0.0339,0.034 -0.0339,0 -0.0339,0 -0.0339,0.034 -0.0339,0 -0.0339,0 -0.0339,0 0,0.034 -0.0339,0 -0.0339,0 -0.0339,0 -0.0339,0 -0.0339,0 0,0.034 -0.0339,0 -0.0339,0 -0.0339,0 -0.0339,0 -0.0339,0 -0.0339,0 -0.0339,0 -0.0339,0 -0.0339,0 -0.0339,0 -0.0339,0.034 -0.0339,0 -0.0339,0 -0.0339,0 -0.0339,0 0,-0.034 -0.0339,0 -0.0339,0 -0.0339,0 -0.0339,0 -0.0339,0 -0.0339,0 -0.0339,0 -0.0339,0 -0.0339,0 -0.0339,0 0,-0.034 -0.0339,0 -0.0339,0 -0.0339,0 -0.0339,0 -0.0339,0 0,-0.034 -0.0339,0 -0.0339,0 -0.0339,0 -0.0339,0 0,-0.034 -0.0339,0 -0.0339,0 -0.0339,0 0,-0.034 -0.0339,0 -0.0339,0 -0.0339,-0.034 -0.0339,0 -0.0339,0 0,-0.034 -0.0339,0 -0.0339,0 0,-0.034 -0.0339,0 -0.0339,0 0,-0.034 -0.0339,0 -0.0339,0 0,-0.034 -0.0339,0 -0.0339,0 0,-0.034 -0.0339,0 -0.0339,0 0,-0.034 -0.0339,0 0,-0.034 -0.0339,0 -0.0339,0 0,-0.034 -0.0339,0 0,-0.034 -0.0339,0 -0.0339,0 0,-0.034 -0.0339,0 0,-0.034 -0.0339,0 0,-0.034 -0.0339,0 0,-0.034 -0.0339,0 0,-0.034 -0.0339,0 -0.0339,-0.034 -0.0339,-0.034 -0.0339,0 0,-0.034 -0.0339,0 0,-0.034 -0.0339,-0.034 -0.0339,-0.034 0,-0.034 -0.0339,0 0,-0.034 -0.0339,0 0,-0.034 -0.0339,0 0,-0.034 -0.0339,0 0,-0.034 0,-0.034 -0.0339,0 0,-0.034 -0.0339,0 0,-0.034 0,-0.034 -0.0339,0 0,-0.034 -0.0339,0 0,-0.034 0,-0.034 -0.0339,0 0,-0.034 0,-0.034 -0.0339,0 0,-0.034 0,-0.034 -0.0339,0 0,-0.034 0,-0.034 -0.0339,0 0,-0.034 0,-0.034 -0.0339,0 0,-0.034 0,-0.034 -0.0339,-0.034 0,-0.034 0,-0.034 -0.0339,0 0,-0.034 0,-0.034 0,-0.034 -0.0339,0 0,-0.034 0,-0.034 0,-0.034 0,-0.034 -0.0339,0 0,-0.034 0,-0.034 0,-0.034 0,-0.034 0,-0.034 -0.0339,0 0,-0.034 0,-0.034 0,-0.034 0,-0.034 0,-0.034 0,-0.034 0,-0.034 0,-0.034 0,-0.034 0,-0.034 -0.0339,0 0,-0.034 0,-0.034 0,-0.034 0,-0.034 0,-0.034 0.0339,0 0,-0.034 0,-0.034 0,-0.034 0,-0.034 0,-0.034 0,-0.034 0,-0.034 0,-0.034 0,-0.034 0,-0.034 0.0339,0 0,-0.034 0,-0.034 0,-0.034 0,-0.034 0,-0.034 0.0339,0 0,-0.034 0,-0.034 0,-0.034 0,-0.034 0.0339,0 0,-0.034 0,-0.034 0,-0.034 0.0339,0 0,-0.034 0,-0.034 0.0339,-0.034 0,-0.034 0,-0.034 0.0339,0 0,-0.034 0,-0.034 0.0339,0 0,-0.034 0,-0.034 0.0339,0 0,-0.034 0,-0.034 0.0339,0 0,-0.034 0,-0.034 0.0339,0 0,-0.034 0,-0.034 0.0339,0 0,-0.034 0.0339,0 0,-0.034 0,-0.034 0.0339,0 0,-0.034 0.0339,0 0,-0.034 0,-0.034 0.0339,0 0,-0.034 0.0339,0 0,-0.034 0.0339,0 0,-0.034 0.0339,0 0,-0.034 0.0339,0 0,-0.034 0.0339,-0.034 0.0339,-0.034 0,-0.034 0.0339,0 0.0339,-0.034 0.0339,-0.034 0.0339,0 0,-0.034 0.0339,0 0,-0.034 0.0339,0 0,-0.034 0.0339,0 0,-0.034 0.0339,0 0.0339,-0.034 0.0339,0 0,-0.034 0.0339,0 0,-0.034 0.0339,0 0.0339,0 0,-0.034 0.0339,0 0,-0.034 0.0339,0 0.0339,0 0,-0.034 0.0339,0 0.0339,0 0,-0.034 0.0339,0 0.0339,0 0,-0.034 0.0339,0 0.0339,0 0,-0.034 0.0339,0 0.0339,0 0,-0.034 0.0339,0 0.0339,0 0.0339,0 0,-0.034 0.0339,0 0.0339,0 0,-0.034 0.0339,0 0.0339,0 0.0339,0 0.0339,-0.034 0.0339,0 0.0339,0 0.0339,0 0.0339,-0.034 0.0339,0 0.0339,0 0.0339,0 0.0339,0 0.0339,-0.034 0.0339,0 0.0339,0 0.0339,0 0.0339,0 0.0339,0 0.0339,0 0.0339,0 0.0339,0 0.0339,0 0.0339,0 0.0339,0 z" /><text
     id="text56444"
     style="font-variant:normal;font-weight:normal;font-stretch:normal;font-size:3.11987042px;font-family:Arial;-inkscape-font-specification:ArialMT;writing-mode:lr-tb;fill:#000000;fill-opacity:1;fill-rule:nonzero;stroke:none"
     transform="matrix(0,-0.89442719,-1.118034,0,0,0)"
     freecad:editable="Scale"
     x="-3845.4385"
     y="-741.57623"><tspan
       id="tspan56446"
       sodipodi:role="line"
       y="-741.57623"
       x="-3845.4385">Scale</tspan></text>
<text
     id="text56448"
     style="font-variant:normal;font-weight:normal;font-stretch:normal;font-size:3.11987042px;font-family:Arial;-inkscape-font-specification:ArialMT;writing-mode:lr-tb;fill:#000000;fill-opacity:1;fill-rule:nonzero;stroke:none"
     transform="matrix(0,-0.89442719,-1.118034,0,0,0)"
     freecad:editable="1A"
     x="-3852.583"
     y="-743.62872"><tspan
       id="tspan56450"
       sodipodi:role="line"
       y="-743.62872"
       x="-3852.583 -3850.8484">1A</tspan></text>
<text
     id="text56452"
     style="font-variant:normal;font-weight:normal;font-stretch:normal;font-size:3.11987042px;font-family:Arial;-inkscape-font-specification:ArialMT;writing-mode:lr-tb;fill:#000000;fill-opacity:1;fill-rule:nonzero;stroke:none"
     transform="matrix(0,-0.89442719,-1.118034,0,0,0)"
     freecad:editable="Title"
     x="-3846.2991"
     y="-745.26367"><tspan
       id="tspan56454"
       sodipodi:role="line"
       y="-745.26367"
       x="-3846.2991">Title</tspan></text>
<path
     inkscape:connector-curvature="0"
     id="path56456"
     style="fill:none;stroke:#000000;stroke-width:0.03999999;stroke-linecap:round;stroke-linejoin:round;stroke-miterlimit:10;stroke-dasharray:none;stroke-opacity:1"
     d="m 832.43099,3441.6224 0,-197.8491" />
</g>
</svg>
